#!OML:ASF F:\VICON\USERDATA\Patient Classification 1\PLAYGROUND\JustinFriday\JustinFriday.ASF
:FULLY-SPECIFIED
:DEGREES
3260
root 38.7965 21.9736 -9.16302 128.782 -86.7299 -110.995
lowerback 31.4927 1.85181 2.7699
upperback 7.99228 2.66574 3.0189
thorax -8.18379 0.870453 0.866726
lowerneck -10.7677 -1.82674 -4.16885
upperneck -13.7098 -2.16531 6.75031
head -2.46965 -1.3105 2.93393
rclavicle -7.95139e-016 1.31198e-014
rhumerus 32.1894 20.0693 -64.4014
rradius 41.3337
rwrist 16.5296
rhand -36.2659 3.72514
rfingers 7.12502
rthumb -9.36642 -386.047
lclavicle -7.95139e-016 1.31198e-014
lhumerus 51.133 -5.45805 55.9768
lradius 81.1115
lwrist -20.0646
lhand -42.7603 -23.229
lfingers 7.12502
lthumb -15.6276 6.1598
rfemur -39.8469 -7.654 23.9798
rtibia 61.5281
rfoot -3.74836 -11.6312
rtoes 14.4678
lfemur -47.407 2.85544 -19.07
ltibia 56.4867
lfoot -23.8646 -13.845
ltoes 37.1228
3261
root 38.7982 22.0536 -9.15825 129.009 -86.8158 -111.229
lowerback 31.8639 1.81133 2.68525
upperback 8.10336 2.56695 2.89976
thorax -8.22801 0.816973 0.814064
lowerneck -10.9088 -1.7953 -4.03495
upperneck -14.0034 -2.13155 6.88597
head -2.54889 -1.31501 2.96273
rclavicle -2.46493e-014 -7.95139e-015
rhumerus 32.5308 19.9464 -64.6191
rradius 40.8548
rwrist 16.8419
rhand -36.8054 4.18874
rfingers 7.12502
rthumb -9.88692 -385.559
lclavicle -2.46493e-014 -7.95139e-015
lhumerus 53.1487 -4.02993 56.3051
lradius 79.4237
lwrist -20.4628
lhand -40.0567 -21.8208
lfingers 7.12502
lthumb -13.0224 7.75269
rfemur -41.6368 -7.49101 23.8428
rtibia 64.6274
rfoot -4.69588 -10.5491
rtoes 16.2033
lfemur -46.5976 2.76653 -19.0411
ltibia 54.9703
lfoot -22.9852 -14.2075
ltoes 38.2567
3262
root 38.8066 22.0947 -9.15903 129.688 -86.9954 -111.859
lowerback 32.2134 1.77555 2.40197
upperback 8.19664 2.42462 2.8876
thorax -8.29668 0.745994 1.01449
lowerneck -10.959 -1.77122 -4.0271
upperneck -14.4138 -2.10807 6.91125
head -2.6841 -1.32101 2.9814
rclavicle -1.82882e-014 -2.70347e-014
rhumerus 32.9626 20.1479 -64.3846
rradius 40.581
rwrist 16.6894
rhand -37.8569 3.93215
rfingers 7.12502
rthumb -10.9013 -385.765
lclavicle -1.82882e-014 -2.70347e-014
lhumerus 55.0576 -2.78674 56.5899
lradius 77.6831
lwrist -19.9379
lhand -38.2075 -20.4435
lfingers 7.12502
lthumb -11.2394 9.2354
rfemur -43.7072 -7.29734 23.6531
rtibia 67.8672
rfoot -5.72753 -9.57582
rtoes 18.3405
lfemur -46.2549 5.98195 -21.0339
ltibia 53.2864
lfoot -22.0248 -14.4161
ltoes 34.5314
3263
root 38.8201 22.1413 -9.16754 127.943 -87.1639 -110.071
lowerback 32.99 1.71915 2.08169
upperback 7.76414 2.27974 2.99321
thorax -8.38639 0.656918 1.27503
lowerneck -10.8674 -1.68417 -4.076
upperneck -14.5011 -1.99989 6.77351
head -2.73748 -1.26481 2.94859
rclavicle -2.62396e-014 -5.4467e-014
rhumerus 33.3572 20.3589 -64.352
rradius 40.2638
rwrist 16.623
rhand -38.8978 2.58069
rfingers 7.12502
rthumb -11.9051 -387.061
lclavicle -2.62396e-014 -5.4467e-014
lhumerus 56.887 -1.80806 56.7685
lradius 75.835
lwrist -19.2177
lhand -37.0146 -17.3083
lfingers 7.12502
lthumb -10.0887 12.4299
rfemur -45.7764 -7.10734 23.6265
rtibia 71.1203
rfoot -7.17811 -9.87578
rtoes 16.7146
lfemur -45.6397 6.52617 -21.8981
ltibia 51.5356
lfoot -22.9061 -10.6148
ltoes 20.8829
3264
root 38.825 22.2051 -9.15836 123.285 -87.2831 -105.09
lowerback 33.0896 1.62641 2.20907
upperback 7.65789 2.22334 2.98633
thorax -8.53447 0.631914 1.21828
lowerneck -11.1273 -1.72918 -4.37435
upperneck -14.3396 -2.01085 7.03092
head -2.63399 -1.25471 3.08508
rclavicle 1.19271e-014 1.47101e-014
rhumerus 33.4092 20.0706 -64.5057
rradius 39.8991
rwrist 16.8523
rhand -39.4821 2.09319
rfingers 7.12502
rthumb -12.4685 -387.515
lclavicle 1.19271e-014 1.47101e-014
lhumerus 58.9626 -1.19216 57.2041
lradius 73.5829
lwrist -19.033
lhand -35.8809 -15.0136
lfingers 7.12502
lthumb -8.9949 14.7746
rfemur -48.0246 -7.20884 23.6838
rtibia 74.084
rfoot -8.19612 -10.0797
rtoes 14.4818
lfemur -45.2384 5.93785 -21.9894
ltibia 49.9599
lfoot -22.7033 -8.77616
ltoes 15.9424
3265
root 38.8241 22.2945 -9.1528 125.055 -87.4457 -106.743
lowerback 33.3449 1.69393 1.97574
upperback 7.65611 2.22553 2.89078
thorax -8.64093 0.633455 1.23843
lowerneck -10.9425 -1.47473 -3.67063
upperneck -14.623 -1.76672 6.59553
head -2.78346 -1.16892 2.8185
rclavicle 1.35174e-014 -1.23246e-014
rhumerus 33.5795 19.7036 -64.7228
rradius 39.4958
rwrist 16.9996
rhand -39.7225 2.72012
rfingers 7.12502
rthumb -12.7002 -386.874
lclavicle 1.35174e-014 -1.23246e-014
lhumerus 61.0802 -0.425395 57.6258
lradius 71.1516
lwrist -19.0508
lhand -34.64 -14.4037
lfingers 7.12502
lthumb -7.7973 15.4325
rfemur -49.8532 -7.08868 23.5836
rtibia 76.7557
rfoot -8.74344 -9.94787
rtoes 12.5567
lfemur -44.7164 6.48698 -22.4477
ltibia 48.5542
lfoot -22.0505 -9.52342
ltoes 19.1009
3266
root 38.8207 22.3959 -9.14294 128.719 -87.8059 -110.526
lowerback 33.7762 1.71079 1.47461
upperback 7.76099 2.0623 2.84373
thorax -8.70767 0.554627 1.51264
lowerneck -10.8457 -1.38939 -3.53798
upperneck -14.8725 -1.67292 6.54092
head -2.89318 -1.13824 2.78522
rclavicle -6.36111e-015 -1.07344e-014
rhumerus 33.9987 19.7298 -64.7856
rradius 39.0905
rwrist 16.9369
rhand -39.8479 3.31979
rfingers 7.12502
rthumb -12.8211 -386.266
lclavicle -6.36111e-015 -1.07344e-014
lhumerus 63.0829 0.58816 58.1159
lradius 68.6548
lwrist -19.264
lhand -32.7876 -13.987
lfingers 7.12502
lthumb -6.00918 15.9078
rfemur -51.3235 -7.23642 23.2294
rtibia 79.1662
rfoot -9.46721 -9.96311
rtoes 10.5254
lfemur -43.5684 5.07718 -21.8026
ltibia 47.2907
lfoot -20.129 -12.2628
ltoes 31.9735
3267
root 38.8211 22.4552 -9.13273 125.151 -87.9731 -107.117
lowerback 34.3967 1.65877 1.46614
upperback 7.80994 1.99701 2.9679
thorax -8.8921 0.51049 1.66935
lowerneck -10.6596 -1.60134 -3.93265
upperneck -15.3852 -1.923 6.70864
head -3.08928 -1.2667 2.9304
rclavicle -1.43125e-014 -2.90226e-014
rhumerus 34.2942 19.838 -64.49
rradius 38.9074
rwrist 16.8368
rhand -39.5523 3.45162
rfingers 7.12502
rthumb -12.5361 -386.152
lclavicle -1.43125e-014 -2.90226e-014
lhumerus 65.1946 1.33907 58.9922
lradius 66.018
lwrist -19.6846
lhand -30.3196 -13.5
lfingers 7.12502
lthumb -3.62611 16.4489
rfemur -52.9214 -7.69129 23.1935
rtibia 81.6869
rfoot -10.5229 -9.78352
rtoes 9.43761
lfemur -42.6624 4.81492 -22.1526
ltibia 45.8603
lfoot -20.192 -10.6136
ltoes 27.253
3268
root 38.8293 22.5414 -9.13345 119.662 -87.7376 -101.454
lowerback 34.7241 1.69129 1.65777
upperback 7.7724 2.12683 3.17206
thorax -9.06018 0.560042 1.73314
lowerneck -10.6114 -1.77265 -3.97945
upperneck -15.8648 -2.17767 6.56517
head -3.25329 -1.4065 2.9012
rclavicle -2.22639e-014 -2.5842e-014
rhumerus 34.4484 19.8575 -64.1001
rradius 38.8775
rwrist 16.6992
rhand -39.286 3.25399
rfingers 7.12502
rthumb -12.2795 -386.365
lclavicle -2.22639e-014 -2.5842e-014
lhumerus 67.27 1.89534 59.8612
lradius 63.3814
lwrist -20.2001
lhand -27.7148 -13.2532
lfingers 7.12502
lthumb -1.11045 16.7236
rfemur -54.7849 -7.60633 23.7146
rtibia 83.9891
rfoot -11.0906 -9.71765
rtoes 6.67818
lfemur -42.1771 4.69916 -21.515
ltibia 44.4706
lfoot -18.8291 -10.999
ltoes 26.4886
3269
root 38.84 22.5671 -9.1368 117.129 -87.7978 -98.794
lowerback 35.1266 1.74061 1.47153
upperback 7.71159 2.14641 3.29438
thorax -9.29194 0.566118 1.95158
lowerneck -10.7752 -1.82537 -4.14635
upperneck -15.8551 -2.23169 6.62915
head -3.21737 -1.42657 2.95035
rclavicle -1.59028e-014 -2.26615e-014
rhumerus 34.6448 19.8101 -63.9796
rradius 38.6985
rwrist 16.7316
rhand -39.2465 3.24471
rfingers 7.12502
rthumb -12.2414 -386.377
lclavicle -1.59028e-014 -2.26615e-014
lhumerus 69.1125 2.44176 60.5346
lradius 60.7861
lwrist -20.5725
lhand -25.6738 -12.6311
lfingers 7.12502
lthumb 0.860832 17.3469
rfemur -56.9304 -7.34023 23.8013
rtibia 86.6131
rfoot -12.1459 -9.46246
rtoes 6.56798
lfemur -41.8333 6.64957 -22.9554
ltibia 42.796
lfoot -19.8948 -7.61959
ltoes 5.05859
